<mxfile host="Electron" agent="Mozilla/5.0 (Windows NT 10.0; Win64; x64) AppleWebKit/537.36 (KHTML, like Gecko) draw.io/27.0.9 Chrome/134.0.6998.205 Electron/35.4.0 Safari/537.36" version="27.0.9">
  <diagram name="Page-1" id="5f0bae14-7c28-e335-631c-24af17079c00">
    <mxGraphModel dx="1426" dy="849" grid="1" gridSize="10" guides="1" tooltips="1" connect="1" arrows="1" fold="1" page="1" pageScale="1" pageWidth="1100" pageHeight="850" background="none" math="0" shadow="0">
      <root>
        <mxCell id="0" />
        <mxCell id="1" parent="0" />
        <mxCell id="39150e848f15840c-1" value="JavaFX клиент" style="verticalAlign=top;align=left;spacingTop=8;spacingLeft=2;spacingRight=12;shape=cube;size=10;direction=south;fontStyle=4;html=1;rounded=0;shadow=0;comic=0;labelBackgroundColor=none;strokeWidth=1;fontFamily=Times New Roman;fontSize=16;" parent="1" vertex="1">
          <mxGeometry x="10" y="65" width="430" height="225" as="geometry" />
        </mxCell>
        <mxCell id="39150e848f15840c-2" value="Spring Boot сервер" style="verticalAlign=top;align=left;spacingTop=8;spacingLeft=2;spacingRight=12;shape=cube;size=10;direction=south;fontStyle=4;html=1;rounded=0;shadow=0;comic=0;labelBackgroundColor=none;strokeWidth=1;fontFamily=Times New Roman;fontSize=16;" parent="1" vertex="1">
          <mxGeometry x="490" y="50" width="540" height="330" as="geometry" />
        </mxCell>
        <mxCell id="39150e848f15840c-3" value="Внешние сервисы" style="verticalAlign=top;align=left;spacingTop=8;spacingLeft=2;spacingRight=12;shape=cube;size=10;direction=south;fontStyle=4;html=1;rounded=0;shadow=0;comic=0;labelBackgroundColor=none;strokeWidth=1;fontFamily=Times New Roman;fontSize=16;" parent="1" vertex="1">
          <mxGeometry x="230" y="440" width="480" height="230" as="geometry" />
        </mxCell>
        <mxCell id="39150e848f15840c-5" value="UI-интерфейс" style="shape=component;align=left;spacingLeft=36;rounded=0;shadow=0;comic=0;labelBackgroundColor=none;strokeWidth=1;fontFamily=Times New Roman;fontSize=16;html=1;" parent="1" vertex="1">
          <mxGeometry x="30" y="147.5" width="140" height="60" as="geometry" />
        </mxCell>
        <mxCell id="39150e848f15840c-7" value="Отчеты" style="shape=component;align=left;spacingLeft=36;rounded=0;shadow=0;comic=0;labelBackgroundColor=none;strokeWidth=1;fontFamily=Times New Roman;fontSize=16;html=1;" parent="1" vertex="1">
          <mxGeometry x="890" y="65" width="100" height="60" as="geometry" />
        </mxCell>
        <mxCell id="39150e848f15840c-10" value="Redis" style="shape=component;align=left;spacingLeft=36;rounded=0;shadow=0;comic=0;labelBackgroundColor=none;strokeWidth=1;fontFamily=Times New Roman;fontSize=16;html=1;" parent="1" vertex="1">
          <mxGeometry x="290" y="500" width="90" height="60" as="geometry" />
        </mxCell>
        <mxCell id="VXauRAU1Mu8Nl1u4kJcr-1" value="Ollama" style="shape=component;align=left;spacingLeft=36;rounded=0;shadow=0;comic=0;labelBackgroundColor=none;strokeWidth=1;fontFamily=Times New Roman;fontSize=16;html=1;" parent="1" vertex="1">
          <mxGeometry x="290" y="590" width="100" height="60" as="geometry" />
        </mxCell>
        <mxCell id="VXauRAU1Mu8Nl1u4kJcr-2" value="Minio" style="shape=component;align=left;spacingLeft=36;rounded=0;shadow=0;comic=0;labelBackgroundColor=none;strokeWidth=1;fontFamily=Times New Roman;fontSize=16;html=1;" parent="1" vertex="1">
          <mxGeometry x="510" y="500" width="100" height="60" as="geometry" />
        </mxCell>
        <mxCell id="VXauRAU1Mu8Nl1u4kJcr-3" value="Документы" style="shape=component;align=left;spacingLeft=36;rounded=0;shadow=0;comic=0;labelBackgroundColor=none;strokeWidth=1;fontFamily=Times New Roman;fontSize=16;html=1;" parent="1" vertex="1">
          <mxGeometry x="870" y="147.5" width="120" height="60" as="geometry" />
        </mxCell>
        <mxCell id="VXauRAU1Mu8Nl1u4kJcr-4" value="Авторизация" style="shape=component;align=left;spacingLeft=36;rounded=0;shadow=0;comic=0;labelBackgroundColor=none;strokeWidth=1;fontFamily=Times New Roman;fontSize=16;html=1;" parent="1" vertex="1">
          <mxGeometry x="650" y="200" width="130" height="60" as="geometry" />
        </mxCell>
        <mxCell id="VXauRAU1Mu8Nl1u4kJcr-5" value="REST API" style="shape=component;align=left;spacingLeft=36;rounded=0;shadow=0;comic=0;labelBackgroundColor=none;strokeWidth=1;fontFamily=Times New Roman;fontSize=16;html=1;" parent="1" vertex="1">
          <mxGeometry x="500" y="200" width="130" height="60" as="geometry" />
        </mxCell>
        <mxCell id="VXauRAU1Mu8Nl1u4kJcr-6" value="Экономические&lt;div&gt;&lt;div&gt;&amp;nbsp;модели&lt;/div&gt;&lt;/div&gt;" style="shape=component;align=left;spacingLeft=36;rounded=0;shadow=0;comic=0;labelBackgroundColor=none;strokeWidth=1;fontFamily=Times New Roman;fontSize=16;html=1;" parent="1" vertex="1">
          <mxGeometry x="840" y="230" width="150" height="60" as="geometry" />
        </mxCell>
        <mxCell id="VXauRAU1Mu8Nl1u4kJcr-7" value="Почтовый&lt;div&gt;&lt;div&gt;&amp;nbsp;сервер&lt;/div&gt;&lt;/div&gt;" style="shape=component;align=left;spacingLeft=36;rounded=0;shadow=0;comic=0;labelBackgroundColor=none;strokeWidth=1;fontFamily=Times New Roman;fontSize=16;html=1;" parent="1" vertex="1">
          <mxGeometry x="510" y="590" width="120" height="60" as="geometry" />
        </mxCell>
        <mxCell id="VXauRAU1Mu8Nl1u4kJcr-8" value="PostgreSQL" style="shape=datastore;whiteSpace=wrap;html=1;fontFamily=Times New Roman;fontSize=16;" parent="1" vertex="1">
          <mxGeometry x="950" y="560" width="100" height="80" as="geometry" />
        </mxCell>
        <mxCell id="VXauRAU1Mu8Nl1u4kJcr-9" value="Сервисы" style="shape=component;align=left;spacingLeft=36;rounded=0;shadow=0;comic=0;labelBackgroundColor=none;strokeWidth=1;fontFamily=Times New Roman;fontSize=16;html=1;" parent="1" vertex="1">
          <mxGeometry x="250" y="147.5" width="140" height="60" as="geometry" />
        </mxCell>
        <mxCell id="VXauRAU1Mu8Nl1u4kJcr-12" value="LLM" style="shape=component;align=left;spacingLeft=36;rounded=0;shadow=0;comic=0;labelBackgroundColor=none;strokeWidth=1;fontFamily=Times New Roman;fontSize=16;html=1;" parent="1" vertex="1">
          <mxGeometry x="860" y="310" width="130" height="60" as="geometry" />
        </mxCell>
        <mxCell id="VXauRAU1Mu8Nl1u4kJcr-14" style="edgeStyle=orthogonalEdgeStyle;rounded=0;orthogonalLoop=1;jettySize=auto;html=1;entryX=0.129;entryY=0.492;entryDx=0;entryDy=0;entryPerimeter=0;fontFamily=Times New Roman;fontSize=16;" parent="1" source="39150e848f15840c-5" target="VXauRAU1Mu8Nl1u4kJcr-9" edge="1">
          <mxGeometry relative="1" as="geometry" />
        </mxCell>
        <mxCell id="VXauRAU1Mu8Nl1u4kJcr-15" style="edgeStyle=orthogonalEdgeStyle;rounded=0;orthogonalLoop=1;jettySize=auto;html=1;entryX=0.131;entryY=0.5;entryDx=0;entryDy=0;entryPerimeter=0;fontFamily=Times New Roman;fontSize=16;" parent="1" source="VXauRAU1Mu8Nl1u4kJcr-9" target="VXauRAU1Mu8Nl1u4kJcr-5" edge="1">
          <mxGeometry relative="1" as="geometry" />
        </mxCell>
        <mxCell id="VXauRAU1Mu8Nl1u4kJcr-18" style="edgeStyle=orthogonalEdgeStyle;rounded=0;orthogonalLoop=1;jettySize=auto;html=1;entryX=0.1;entryY=0.5;entryDx=0;entryDy=0;entryPerimeter=0;fontFamily=Times New Roman;fontSize=16;" parent="1" source="VXauRAU1Mu8Nl1u4kJcr-4" target="VXauRAU1Mu8Nl1u4kJcr-6" edge="1">
          <mxGeometry relative="1" as="geometry" />
        </mxCell>
        <mxCell id="VXauRAU1Mu8Nl1u4kJcr-19" style="edgeStyle=orthogonalEdgeStyle;rounded=0;orthogonalLoop=1;jettySize=auto;html=1;entryX=0.108;entryY=0.508;entryDx=0;entryDy=0;entryPerimeter=0;fontFamily=Times New Roman;fontSize=16;" parent="1" source="VXauRAU1Mu8Nl1u4kJcr-4" target="VXauRAU1Mu8Nl1u4kJcr-3" edge="1">
          <mxGeometry relative="1" as="geometry" />
        </mxCell>
        <mxCell id="VXauRAU1Mu8Nl1u4kJcr-21" value="" style="edgeStyle=elbowEdgeStyle;elbow=horizontal;endArrow=classic;html=1;curved=0;rounded=0;endSize=8;startSize=8;entryX=0.17;entryY=0.533;entryDx=0;entryDy=0;entryPerimeter=0;fontFamily=Times New Roman;fontSize=16;" parent="1" target="39150e848f15840c-7" edge="1">
          <mxGeometry width="50" height="50" relative="1" as="geometry">
            <mxPoint x="780" y="230" as="sourcePoint" />
            <mxPoint x="890" y="95" as="targetPoint" />
            <Array as="points">
              <mxPoint x="800" y="150" />
            </Array>
          </mxGeometry>
        </mxCell>
        <mxCell id="VXauRAU1Mu8Nl1u4kJcr-22" value="" style="edgeStyle=elbowEdgeStyle;elbow=horizontal;endArrow=classic;html=1;curved=0;rounded=0;endSize=8;startSize=8;entryX=0.138;entryY=0.533;entryDx=0;entryDy=0;entryPerimeter=0;fontFamily=Times New Roman;fontSize=16;" parent="1" target="VXauRAU1Mu8Nl1u4kJcr-12" edge="1">
          <mxGeometry width="50" height="50" relative="1" as="geometry">
            <mxPoint x="780" y="230" as="sourcePoint" />
            <mxPoint x="873" y="341" as="targetPoint" />
            <Array as="points">
              <mxPoint x="800" y="290" />
            </Array>
          </mxGeometry>
        </mxCell>
        <mxCell id="VXauRAU1Mu8Nl1u4kJcr-25" value="" style="edgeStyle=elbowEdgeStyle;elbow=horizontal;endArrow=classic;html=1;curved=0;rounded=0;endSize=8;startSize=8;entryX=1;entryY=0.5;entryDx=0;entryDy=0;exitX=1;exitY=0.617;exitDx=0;exitDy=0;exitPerimeter=0;fontFamily=Times New Roman;fontSize=16;" parent="1" source="39150e848f15840c-7" target="VXauRAU1Mu8Nl1u4kJcr-8" edge="1">
          <mxGeometry width="50" height="50" relative="1" as="geometry">
            <mxPoint x="1060" y="100" as="sourcePoint" />
            <mxPoint x="1085" y="600" as="targetPoint" />
            <Array as="points">
              <mxPoint x="1080" y="350" />
            </Array>
          </mxGeometry>
        </mxCell>
        <mxCell id="VXauRAU1Mu8Nl1u4kJcr-28" value="" style="endArrow=none;html=1;rounded=0;fontFamily=Times New Roman;fontSize=16;" parent="1" edge="1">
          <mxGeometry width="50" height="50" relative="1" as="geometry">
            <mxPoint x="990" y="180" as="sourcePoint" />
            <mxPoint x="1080" y="180" as="targetPoint" />
          </mxGeometry>
        </mxCell>
        <mxCell id="VXauRAU1Mu8Nl1u4kJcr-29" value="" style="endArrow=none;html=1;rounded=0;fontFamily=Times New Roman;fontSize=16;" parent="1" edge="1">
          <mxGeometry width="50" height="50" relative="1" as="geometry">
            <mxPoint x="990" y="260" as="sourcePoint" />
            <mxPoint x="1080" y="260" as="targetPoint" />
          </mxGeometry>
        </mxCell>
        <mxCell id="VXauRAU1Mu8Nl1u4kJcr-30" value="" style="endArrow=none;html=1;rounded=0;fontFamily=Times New Roman;fontSize=16;" parent="1" edge="1">
          <mxGeometry width="50" height="50" relative="1" as="geometry">
            <mxPoint x="990" y="340" as="sourcePoint" />
            <mxPoint x="1080" y="340" as="targetPoint" />
          </mxGeometry>
        </mxCell>
        <mxCell id="VXauRAU1Mu8Nl1u4kJcr-31" value="" style="edgeStyle=elbowEdgeStyle;elbow=horizontal;endArrow=classic;html=1;curved=0;rounded=0;endSize=8;startSize=8;entryX=0;entryY=0;entryDx=110;entryDy=0;entryPerimeter=0;fontFamily=Times New Roman;fontSize=16;" parent="1" target="39150e848f15840c-3" edge="1">
          <mxGeometry width="50" height="50" relative="1" as="geometry">
            <mxPoint x="1080" y="480" as="sourcePoint" />
            <mxPoint x="1130" y="430" as="targetPoint" />
          </mxGeometry>
        </mxCell>
      </root>
    </mxGraphModel>
  </diagram>
</mxfile>
